<svg viewBox="0 0 20 17" xmlns="http://www.w3.org/2000/svg"><g fill="#E5460C"><path d="M15.636 9.727h-.727a.352.352 0 0 0-.364.364v3.636c0 .5-.178.928-.534 1.284a1.75 1.75 0 0 1-1.284.534H3.273c-.5 0-.928-.178-1.285-.534a1.75 1.75 0 0 1-.534-1.284V4.273c0-.5.178-.928.534-1.284a1.75 1.75 0 0 1 1.285-.535h8a.354.354 0 0 0 .261-.102.354.354 0 0 0 .102-.261v-.728a.354.354 0 0 0-.102-.26.354.354 0 0 0-.262-.103h-8c-.9 0-1.672.32-2.312.96C.32 2.6 0 3.371 0 4.273v9.454c0 .902.32 1.673.96 2.313.64.64 1.411.96 2.313.96h9.454c.902 0 1.673-.32 2.313-.96.64-.64.96-1.411.96-2.313v-3.636a.353.353 0 0 0-.102-.261.353.353 0 0 0-.262-.103z"/><path d="M19.794.206A.667.667 0 0 0 19.306 0h-5.55a.666.666 0 0 0-.488.206.667.667 0 0 0-.206.488c0 .188.069.35.206.488l1.908 1.907-7.068 7.068a.342.342 0 0 0 0 .5l1.236 1.235a.343.343 0 0 0 .499 0l7.067-7.068 1.908 1.908c.138.137.3.206.488.206s.35-.069.488-.206A.667.667 0 0 0 20 6.244V.694a.667.667 0 0 0-.206-.488z"/></g></svg>