<svg viewBox="0 0 20 20" xmlns="http://www.w3.org/2000/svg" xmlns:xlink="http://www.w3.org/1999/xlink"><defs><path id="a" d="M0 0h19.844v19.844H0z"/></defs><g fill="none" fill-rule="evenodd"><mask id="b" fill="#FFF"><use xlink:href="#a"/></mask><path d="M19.844 18.748c0 .605-.49 1.096-1.095 1.096h-5.057v-7.685h2.58l.385-2.994h-2.965V7.252c0-.867.24-1.458 1.484-1.458h1.586V3.115a21.295 21.295 0 0 0-2.311-.118c-2.287 0-3.852 1.395-3.852 3.96v2.208H8.013v2.994h2.586v7.685H1.095C.49 19.844 0 19.354 0 18.748V1.096C0 .49.49 0 1.095 0H18.75c.605 0 1.095.49 1.095 1.096v17.652z" fill="#E5460C" mask="url(#b)"/></g></svg>