<svg viewBox="0 0 23 30" xmlns="http://www.w3.org/2000/svg"><path d="M22.436 5.94l-.03-.03v-.03L16.676.15l-.03-.03s-.03 0-.03-.03c0 0-.03 0-.03-.03-.09-.06-.181-.06-.302-.06H2.081C1.538 0 1.025.211.663.573l-.03.03A2.106 2.106 0 0 0 .03 2.051v25.663c0 .573.241 1.085.603 1.447.362.362.905.603 1.448.603h18.365a2.05 2.05 0 0 0 1.447-.603c.362-.362.604-.905.604-1.447V6.242c0-.12-.03-.21-.06-.301zm-5.579-3.769l3.408 3.408h-2.503c-.241 0-.482-.09-.633-.272a.94.94 0 0 1-.272-.633V2.171zM21.2 27.714c0 .21-.09.392-.241.542a.755.755 0 0 1-.543.242H2.08a.867.867 0 0 1-.543-.211.727.727 0 0 1-.211-.543V2.02c0-.21.09-.392.241-.542l.03-.03c.151-.121.332-.212.513-.212h13.51v3.408c0 .603.241 1.146.663 1.568.392.392.965.633 1.568.633H21.2v20.869z" fill="#E5460C"/></svg>