<svg xmlns="http://www.w3.org/2000/svg" viewBox="0 0 553.25351 327.63709" width="553.25351" height="327.63709">
  <g id="Layer_2" data-name="Layer 2">
    <g id="Layer_1-2" data-name="Layer 1">
      <g>
        <path d="M276.693,327.62338q-111.07281.00021-222.1456-.01245c-16.43693-.00641-30.1842-6.25208-41.08735-18.50451A52.03086,52.03086,0,0,1,.39287,279.55857a58.83944,58.83944,0,0,1-.36428-6.45665Q.03233,163.84638.092,54.59092C.13981,32.99171,10.1696,16.87456,28.9397,6.29322A51.228,51.228,0,0,1,53.30016.00564c.47954-.01106.95956-.00245,1.43936-.00245Q276.64518.00313,498.5509.01425c15.95334.002,29.47142,5.863,40.32663,17.54243a52.29487,52.29487,0,0,1,14.00308,31.12824,54.81965,54.81965,0,0,1,.32865,5.49989c-.00462,73.07649.15183,146.15349-.09746,219.22914-.07533,22.08652-10.71282,38.34794-30.22222,48.64325-7.62189,4.0222-15.90853,5.58269-24.5308,5.57988Q387.52586,327.60093,276.693,327.62338Z" fill="#E96C21"/>
        <path d="M241.41918,97.20918c-5.76265,12.00782-12.51677,23.47125-19.05136,35.55934-6.50293-12.248-13.27506-23.88838-19.33008-36.08267-.03711.80952-.10616,1.619-.10655,2.42853q-.01,21.10584-.0082,42.2117c-.00134,2.77026.324,2.59846-2.55448,2.60256-3.43827.00489-6.87657.01426-10.31475-.00424-1.90613-.01027-1.93141-.0341-1.93281-2.01585q-.0127-17.62816-.00422-35.25636,0-15.94931.00035-31.89861c0-.55959.02563-1.12.00334-1.67859-.03321-.83269.3855-1.13429,1.17045-1.117.959.02113,1.91887-.00067,2.87836-.00087,3.51823-.00075,7.03862.07218,10.55359-.03459a2.78164,2.78164,0,0,1,2.94543,1.76954c5.09066,9.86973,10.26139,19.69822,15.42252,29.53152a5.13131,5.13131,0,0,0,1.378,2.16967,4.88478,4.88478,0,0,0,1.27594-2.016c5.03806-9.71694,10.12339-19.41027,15.04249-29.18717a3.55993,3.55993,0,0,1,3.85487-2.27446c4.07353.13456,8.15459.02782,12.23246.04765,1.79531.00873,1.79578.03943,1.83771,1.88557.00545.23972.00091.47967.00091.7195q0,33.33777-.00372,66.67556c-.00091,2.94109.32011,2.67451-2.70853,2.68353-3.43824.01023-6.87663.01824-10.31472-.00476-1.71852-.01149-1.743-.04335-1.76541-1.70417-.02694-1.99829-.00671-3.99724-.00671-5.99589q-.00012-18.10787-.00006-36.21571,0-1.31455,0-2.62911Z" fill="#0a1c27"/>
        <path d="M353.25662,107.82558a48.619,48.619,0,0,1-2.753,17.92189c-3.40394,9.20177-9.55748,15.55435-19.18891,18.18819a1.88325,1.88325,0,0,0-1.65254,2.13089c-.02727,4.06609-.08306,4.06536,4.014,4.06587,1.91867.00024,3.83768.02462,5.75582-.00666.8871-.01443,1.31226.28916,1.30526,1.23368-.02557,3.43684-.03409,6.8743.00644,10.31086.013,1.09839-.515,1.35337-1.47658,1.32741-4.15029-.112-8.30653.20086-12.45143-.36336-6.8414-.93124-11.09563-5.36544-11.58724-12.25421-.10227-1.43333-.1259-2.87536-.113-4.31271a1.43721,1.43721,0,0,0-1.28766-1.66435c-12.461-2.82514-19.404-11.11076-22.30922-23.07785a54.93077,54.93077,0,0,1,.73393-29.35677c2.37121-7.79334,6.87063-13.98841,14.2579-17.85306,9.44209-4.93961,26.05348-4.91626,35.52714,3.491a31.39471,31.39471,0,0,1,9.21445,14.86989A49.176,49.176,0,0,1,353.25662,107.82558Z" fill="#0a1c27"/>
        <path d="M116.0845,232.05156c0-1.22074,0-1.99575,0-2.77075q.00072-21.46085.00373-42.92172c.00114-2.97792-.23478-2.657,2.73092-2.66841,3.43744-.01321,6.87512-.021,10.31243.00521,1.67652.01277,1.67967.05,1.73156,1.76573.01449.47914.00236.9591.00236,1.43868v65.46164c0,.39964.00482.79934-.00091,1.19892-.02977,2.07358-.03066,2.092-2.124,2.09791-4.39677.0125-8.79471-.052-13.18975.03616a2.79171,2.79171,0,0,1-2.834-1.63668c-6.03528-10.53692-12.19547-21.00267-18.183-31.56635-1.965-3.46684-3.53321-7.15859-5.28081-10.74848-.65891-1.35353-1.312-2.70993-2.14051-4.42219a6.6354,6.6354,0,0,0-.288,2.78557q-.01713,21.46076-.01032,42.92154c-.00085,2.82662.24517,2.63081-2.538,2.63339-3.43751.00319-6.87507.01438-10.31248-.005-1.91522-.01081-1.93012-.03546-1.94558-2.02069-.01743-2.23785-.00422-4.476-.00423-6.714q0-29.85337,0-59.70676c0-.55949-.01034-1.11924.00236-1.67844.04094-1.80289.04411-1.83452,1.88357-1.84231,4.5566-.01926,9.1139.03245,13.66965-.03314A2.44755,2.44755,0,0,1,90.01,185.11088c6.2114,10.80441,12.54536,21.53918,18.67367,32.39017,2.19466,3.886,3.92064,8.03632,5.8677,12.0625A7.55433,7.55433,0,0,0,116.0845,232.05156Z" fill="#0a1c27"/>
        <path d="M160.21108,106.33434c1.40458.27373,2.83392.45759,4.20954.83645,6.59717,1.81705,10.88756,6.88377,11.55084,14.04031.61922,6.68071-1.17568,12.69085-5.99086,17.55465a16.71678,16.71678,0,0,1-12.25617,5.1595q-18.109.01692-36.21789.00114c-2.07608-.00113-2.09877-.02129-2.09928-2.082q-.00828-33.93369.00094-67.86737c.0006-1.98339.02906-2.01378,1.94086-2.015q16.78973-.01074,33.57947.00536a21.47531,21.47531,0,0,1,5.21332.699,16.5804,16.5804,0,0,1,13.03349,15.31615,22.81006,22.81006,0,0,1-.7309,8.78306,11.92727,11.92727,0,0,1-9.75789,8.802c-.85032.16372-1.6977.34272-2.54643.51466Z" fill="#0a1c27"/>
        <path d="M279.22264,219.13917c-.92828,3.45841-1.82255,6.92636-2.79159,10.37335-2.29058,8.14765-4.64032,16.27878-6.90419,24.43378a1.97767,1.97767,0,0,1-2.30739,1.75221c-4.076-.10176-8.15681-.07382-12.2345-.01385a1.845,1.845,0,0,1-2.15651-1.61373q-7.08128-25.50387-14.26674-50.97884a13.9773,13.9773,0,0,1-.23836-1.59689c4.56434,0,9.03175.02135,13.49866-.01338,1.2917-.01,1.30388.95061,1.50242,1.76365.98485,4.03316,1.96587,8.06751,2.907,12.111q2.66051,11.43024,5.2774,22.87065c.104.45068.0376.97937.74669,1.36607.37127-1.27119.7754-2.49275,1.08435-3.73794,2.67309-10.77465,5.81428-21.4207,8.8049-32.10806.63083-2.25427.647-2.2531,3.06512-2.25547,3.19888-.00314,6.39782-.01016,9.59664.00354,1.88851.00811,1.9197.01575,2.43409,1.81542,2.83063,9.90337,5.78777,19.77116,8.36926,29.74472.48016,1.855.9862,3.70335,1.47936,5.555a1.15852,1.15852,0,0,0,.798.989c1.00055-4.42951,1.96593-8.847,2.99967-13.24833q2.68343-11.42542,5.43865-22.83394c.48174-2.00769.50926-2.01706,2.471-2.02277,3.91325-.01139,7.82655-.00337,11.86177-.00337a6.01724,6.01724,0,0,1-.41716,2.59222q-6.81854,24.70635-13.6439,49.41081c-.70555,2.54583-.41286,2.1478-2.87983,2.16242-3.83853.02275-7.6773.01177-11.516.00413-2.64518-.00528-2.157.10679-2.76743-2.00945-2.65561-9.20576-5.24067-18.4318-7.84757-27.65158-.65026-2.29975-1.28639-4.60351-1.929-6.90542Z" fill="#0a1c27"/>
        <path d="M444.39146,224.2844a3.89664,3.89664,0,0,0,1.608-1.87906c4.29356-7.176,9.9161-13.32338,15.20693-19.72788a2.6206,2.6206,0,0,1,2.17935-1.20759c5.0313.051,10.06341.02305,15.23587.02305-.09477,1.06-.84516,1.59039-1.37993,2.2071-4.81862,5.55672-9.68017,11.07623-14.48566,16.64419-2.01634,2.33632-1.82463,1.59815-.39,3.99442,5.74689,9.59886,11.54052,19.16979,17.30206,28.75993a5.54974,5.54974,0,0,1,1.13328,2.564c-1.713,0-3.28522,0-4.85745,0-3.67825,0-7.35819-.06469-11.03386.03294a2.65488,2.65488,0,0,1-2.78582-1.67288c-3.3524-6.45146-6.79184-12.8578-10.21459-19.27257a3.62976,3.62976,0,0,0-1.2369-1.69051c-2.04879,2.27928-4.12317,4.58342-6.19287,6.89175a3.0905,3.0905,0,0,0-.459,2.28786c-.00691,3.83754.01224,7.67515-.00978,11.51258-.01072,1.85891-.04235,1.89267-1.83289,1.9033q-5.757.03421-11.5144,0c-1.74022-.01022-1.743-.04433-1.804-1.68681-.01476-.39918-.003-.7994-.003-1.19913q0-35.25735.00345-70.51474c.00088-3.30072-.27851-2.8694,3.00055-2.88922q5.1574-.03114,10.315.00284c1.79235.01247,1.83118.04471,1.8347,1.89841q.02355,12.352.00726,24.70414c.00018,5.27661-.01007,10.55328.01254,15.82978A3.84894,3.84894,0,0,0,444.39146,224.2844Z" fill="#0a1c27"/>
        <path d="M183.63887,238.59631c2.27259,2.82744,4.50267,5.64261,6.78551,8.41429a1.1437,1.1437,0,0,1-.1042,1.82447,23.71108,23.71108,0,0,1-6.16812,4.50392,33.71066,33.71066,0,0,1-24.00885,2.44716c-7.87657-2.03932-13.08243-7.19344-15.6848-14.81361a37.19067,37.19067,0,0,1,.16528-25.3783c3.45511-9.41509,10.49234-14.37593,20.46344-15.157a30.66055,30.66055,0,0,1,10.46864.76942c8.91669,2.40876,13.95569,8.52137,16.3058,17.16483,1.14515,4.21168,1.16011,8.52688,1.10728,12.84755-.01087.89035-.31229,1.35256-1.25465,1.30006-.55765-.0311-1.11861-.0005-1.67807-.00047q-14.62635.00052-29.25265.00179c-2.64258.00105-2.64258.00955-2.43139,2.65877a10.00336,10.00336,0,0,0,8.879,9.49755,16.30139,16.30139,0,0,0,14.51627-4.52863c.46112-.4409.93223-.87146,1.403-1.30211A3.65579,3.65579,0,0,1,183.63887,238.59631Z" fill="#0a1c27"/>
        <path d="M325.60277,228.83651c.04331-5.62665.75887-10.661,3.03876-15.36255,3.90733-8.05761,10.47815-12.22177,19.27986-13.01352a30.01108,30.01108,0,0,1,10.24431.64238,21.88182,21.88182,0,0,1,16.06578,14.73583,37.08712,37.08712,0,0,1-.35209,26.27545c-3.47289,8.85871-10.22593,13.58332-19.65733,14.58875a29.177,29.177,0,0,1-10.93054-.78148c-8.85-2.438-13.98977-8.50533-16.44055-17.113A38.75081,38.75081,0,0,1,325.60277,228.83651Z" fill="#0a1c27"/>
        <path d="M81.246,108.01735q-.00015-10.67171-.00339-21.34341c-.00276-2.21148-.02056-2.21836-2.22576-2.23136-1.91875-.01132-3.838-.02794-5.75626.00416-.91728.01533-1.271-.354-1.26263-1.27223.03045-3.35709.02274-6.71464.00877-10.07193-.00333-.80518.33326-1.17879,1.14481-1.14276.47862.02124.95917-.00269,1.43885-.00272q14.51111-.0006,29.02222-.00019c.39975,0,.802.03084,1.19877-.00321,1.0271-.0881,1.421.36621,1.41082,1.3881q-.04917,4.91565-.00238,9.83209c.00721.91117-.3412,1.28637-1.26543,1.27216-2.15812-.03321-4.31842.03815-6.4753-.02239-1.13478-.03184-1.552.36808-1.53044,1.5154.05551,2.95665.017,5.91506.017,8.87276q-.00024,16.78694.00042,33.57389c0,.63948.03024,1.28006.00213,1.91816-.03607.81881.341,1.14745,1.14063,1.14119q2.99793-.02339,5.99617.0045c2.07589.01675,2.09242.02694,2.10475,2.114q.02478,4.19658-.0006,8.39342c-.013,1.937-.03317,1.96536-1.98679,1.96786q-13.19188.017-26.38383.00494c-1.51906,0-3.0387-.02684-4.557.00676-.89941.01991-1.29234-.31326-1.28361-1.25139q.04574-4.91573-.00394-9.832c-.01148-1.00635.31737-1.44829,1.37666-1.41994,1.99733.05347,3.99731.03045,5.99585.00875,1.82914-.01985,1.86623-.03748,1.87125-1.84132.01778-6.395.00784-12.79.00838-19.18507Q81.24621,109.21641,81.246,108.01735Z" fill="#0a1c27"/>
        <path d="M206.73464,228.80594c0-4.4754.01148-8.95085-.00539-13.42619-.00726-1.92837-.03379-1.93727-2.01221-1.96023-1.43856-.01669-2.87807-.03083-4.316.00229-.88719.02044-1.31706-.29549-1.30941-1.23626.02595-3.19645.02231-6.39331.007-9.58987-.004-.835.39393-1.1249,1.17838-1.10493q1.43761.03668,2.87714-.009c3.39627-.10506,4.92782-1.588,5.0616-5.03541.08669-2.23454.02794-4.47467.035-6.71231.00179-.5594.02332-1.11933.005-1.678-.02686-.82066.39089-1.129,1.16749-1.12765,3.75671.0067,7.51359.01888,11.27006-.01318,1.09222-.00931,1.3377.54813,1.33032,1.4954-.02422,3.11663-.00811,6.23355-.00723,9.35035.0002.71925.05945,1.44419-.01022,2.15656-.12769,1.30606.50121,1.62368,1.688,1.59188,2.39619-.06415,4.79551-.03619,7.19322-.0118,1.75448.01784,1.79218.042,1.80793,1.66861.02864,2.95666-.02,5.91422.02156,8.87059.01467,1.04259-.39555,1.40747-1.4142,1.39125-2.55712-.04082-5.1172.04594-7.67241-.03488-1.28979-.04076-1.63383.47434-1.62958,1.676q.048,13.54593-.005,27.092c-.00627,1.30161.50924,1.62887,1.69662,1.5949,2.23622-.064,4.47628.01534,6.71338-.03078,1.00506-.02073,1.44776.30676,1.43379,1.36466-.04109,3.11625-.0219,6.2334-.01318,9.35014.00208.739-.20041,1.24335-1.06416,1.2148-4.06609-.1345-8.1492.34913-12.19977-.371-7.24222-1.28755-11.44786-5.92977-11.73707-13.29354-.17235-4.38843-.03157-8.78916-.03157-13.18436Z" fill="#0a1c27"/>
        <path d="M402.95175,212.72706c.21678-.64809.41476-1.30316.65319-1.94315,2.43982-6.55035,7.48705-9.62721,14.58307-9.30555.94616.04287,1.23862.42778,1.23364,1.31122-.02155,3.83746-.0393,7.67551.01043,11.51244.015,1.15828-.42724,1.51338-1.54564,1.51133a38.94172,38.94172,0,0,0-8.602.45783,13.64614,13.64614,0,0,0-2.96008.93327,6.20559,6.20559,0,0,0-3.77779,5.415c-.07451.9548-.07588,1.91686-.07641,2.87561q-.00768,13.67142-.00319,27.3428c0,.55961-.02015,1.11966-.00442,1.67877.02269.80587-.36123,1.14656-1.15642,1.14463q-6.47694-.01572-12.95382.00179c-.79654.00292-1.1963-.297-1.1645-1.11969.01854-.47885-.004-.95919-.004-1.43886q-.00061-24.4646.0017-48.92918c.00073-3.00506-.22868-2.66931,2.71778-2.681,3.59832-.01429,7.19682-.01935,10.795.0039,1.70906.011,1.74095.04454,1.76093,1.7245.02943,2.47811-.00033,4.95682.013,7.43522.0036.66748.0721,1.33462.11079,2.00192Z" fill="#0a1c27"/>
        <path d="M306.64665,107.7503c.053-3.50943-.19991-7.02286.43924-10.52061,1.20108-6.57294,5.30472-11.3065,11.22487-12.227,10.24778-1.59343,16.63739,3.50307,17.98265,12.92795a73.47638,73.47638,0,0,1,.00369,20.08356c-.7997,5.99734-3.6684,10.72171-9.89978,12.59083a16.34109,16.34109,0,0,1-9.45068.0132,13.07871,13.07871,0,0,1-8.77573-8.19683,21.06209,21.06209,0,0,1-1.51477-7.47673C306.61159,112.5473,306.64665,110.14846,306.64665,107.7503Z" fill="#E96C21"/>
        <path d="M145.14314,114.23114c2.55882.00047,5.11847-.04114,7.67629.00954,4.66322.09239,6.90537,2.36138,6.95526,6.97247.013,1.199.04969,2.40187-.024,3.59681a5.69546,5.69546,0,0,1-5.0752,5.75571,11.706,11.706,0,0,1-2.13819.23029q-7.79631.02884-15.59276.00354c-1.89285-.00736-1.93675-.04359-1.94791-1.83089q-.04046-6.47568.001-12.95178c.01169-1.72163.06043-1.75888,1.74946-1.77769C139.54546,114.208,142.34442,114.23066,145.14314,114.23114Z" fill="#E96C21"/>
        <path d="M144.09255,85.26821c2.31389,0,4.6296-.05808,6.94128.01343,3.58305.11082,5.56607,1.93321,6.05933,5.49987a17.67007,17.67007,0,0,1-.13624,5.95273,5.40413,5.40413,0,0,1-4.40419,4.48681,9.899,9.899,0,0,1-2.12772.28866q-6.82189.03995-13.64412.007c-1.71153-.00986-1.77172-.067-1.78315-1.74812-.0293-4.3078.03062-8.61652-.033-12.92359-.01936-1.31116.50757-1.63845,1.70775-1.60668,2.47178.06544,4.94653.01969,7.42.01969Z" fill="#E96C21"/>
        <path d="M167.71475,223.49674c-2.71188-.00179-5.424-.02018-8.13553.00873-.89006.00945-1.29672-.28928-1.29555-1.23424.0106-8.61033,6.76067-12.08736,12.78454-10.299,3.79979,1.12809,5.29986,4.11766,5.92115,7.68011.6533,3.74572.517,3.84607-3.29248,3.84616Q170.70582,223.49856,167.71475,223.49674Z" fill="#E96C21"/>
        <path d="M341.584,228.52864c0-2.31544-.10277-4.63636.01947-6.94533.35306-6.67026,5.33413-10.41176,11.85641-8.99027a8.64868,8.64868,0,0,1,6.80719,8.26557,96.98126,96.98126,0,0,1-.0234,15.55742c-.64929,6.89963-7.42,10.47683-13.70186,7.47666-3.19958-1.52817-4.63712-4.32814-4.881-7.7028-.18363-2.54127-.03629-5.10648-.03629-7.661Z" fill="#E96C21"/>
      </g>
    </g>
  </g>
</svg>
