<svg viewBox="0 0 20 19" xmlns="http://www.w3.org/2000/svg" xmlns:xlink="http://www.w3.org/1999/xlink"><defs><path id="a" d="M.276.54h13.178v12.433H.276z"/><path id="c" d="M0 .25h4.718v4.273H0z"/></defs><g fill="none" fill-rule="evenodd"><path fill="#FFF" d="M.503 18.668H4.39V6.354H.503z"/><g transform="translate(6.486 5.695)"><mask id="b" fill="#fff"><use xlink:href="#a"/></mask><path d="M8.522.54C6.295.54 4.9 1.746 4.642 2.59V.659H.276c.057 1.026 0 12.315 0 12.315h4.366V6.31c0-.37-.017-.74.095-1.006.3-.741.945-1.51 2.105-1.51 1.516 0 2.205 1.14 2.205 2.807v6.373h4.407V6.126c0-3.815-2.17-5.586-4.932-5.586" fill="#FFF" mask="url(#b)"/></g><g transform="translate(0 .29)"><mask id="d" fill="#fff"><use xlink:href="#c"/></mask><path d="M2.374.25C.94.25 0 1.172 0 2.39c0 1.193.912 2.134 2.319 2.134h.028c1.46 0 2.37-.945 2.37-2.138C4.69 1.17 3.808.25 2.375.25" fill="#FFF" mask="url(#d)"/></g></g></svg>