<svg xmlns="http://www.w3.org/2000/svg" width="180" height="68" viewBox="0 0 1110 420.3"><title>nvidia-inception-program-badge-rgb-for-screen</title><g transform="translate(-79.9,-80)"><rect x="79.9" y="81.7" class="st0" width="1108.5" height="418.6" fill="#f3f4f4"/><path d="M656 277.9v-65.9h7v65.9h-7Zm66.7 0l-35-52.9v52.9h-7.1v-65.9h6.7l35 52.7v-52.9h7v65.9l-6.6 .2Zm45.7 .5c-6.3 .1-12.4-2.4-16.9-6.8c-6.2-6.2-6.2-12.7-6.2-26.7c0-14 0-20.5 6.2-26.7c4.5-4.5 10.6-6.9 16.9-6.8c11.9 0 20.7 7.2 22.9 19.6h-7.2c-1.8-8.1-7.4-13.3-15.7-13.3c-4.3-0.1-8.4 1.6-11.4 4.6c-4.2 4.3-4.6 8.8-4.6 22.6c0 13.8 .5 18.3 4.6 22.6c3 3 7.1 4.7 11.4 4.6c8.2 0 14.1-5.3 15.8-13.3h7c-2.1 12.3-11.1 19.6-22.8 19.6Zm37.6-0.5v-65.9h41v6.3h-33.9v23.3h28.9v6.3h-28.9v23.8h33.9v6.2h-41Zm79.7-27.1h-17.5v27.1h-7v-65.9h24.6c12 0 20.4 7.5 20.4 19.4c0 11.9-8.5 19.4-20.5 19.4Zm-0.7-32.6h-16.9v26.2h16.9c8.2 0 14-4.4 14-13.2c0-8.8-5.8-13-14-13Zm55.8 0v59.8h-7.1v-59.8h-19.1v-6.3h45.2v6.3h-19Zm32.1 59.7v-65.9h7.1v65.9h-7.1Zm62.8-6.3c-9.4 9.1-24.3 9.1-33.7 0c-6.2-6.2-6.2-12.7-6.2-26.7c0-14 0-20.5 6.2-26.7c9.4-9.1 24.3-9.1 33.7 0c6.2 6.2 6.2 12.7 6.2 26.7c0 14 .1 20.4-6.2 26.7Zm-5.5-49.2c-6.3-6.3-16.5-6.3-22.7 0c-4.2 4.2-4.6 8.7-4.6 22.5c0 13.8 .5 18.3 4.6 22.5c6.3 6.3 16.5 6.3 22.7 0c4.2-4.2 4.6-8.7 4.6-22.5c0-13.8-0.4-18.3-4.6-22.5Zm69.7 55.5l-35-52.9v52.9h-7v-65.9h6.7l35 52.7v-52.9h7v65.9l-6.7 .2Zm-419.4 65.5h-17.4v27.1h-7v-65.9h24.6c12 0 20.4 7.5 20.4 19.4c-0.1 11.9-8.5 19.4-20.6 19.4Zm-0.6-32.5h-16.9v26.2h16.9c8.3 0 14-4.5 14-13.2c0-8.7-5.8-13-14-13Zm72.5 59.6l-15-29.3h-15.8v29.3h-7.1v-65.9h25.3c11.5 0 19.6 7 19.6 18.4c.4 8.7-5.8 16.3-14.4 17.7l15.7 29.9l-8.3-0.1Zm-13.2-59.6h-17.6v24.2h17.6c7.8 0 13.1-4 13.1-12.1c0-8.1-5.4-12.1-13.1-12.1Zm73.7 53.3c-9.4 9.1-24.3 9.1-33.7 0c-6.2-6.2-6.2-12.7-6.2-26.7c0-14 0-20.5 6.2-26.7c9.4-9.1 24.3-9.1 33.7 0c6.2 6.2 6.2 12.7 6.2 26.7c0 14 0 20.5-6.2 26.7Zm-5.4-49.2c-6.3-6.3-16.5-6.3-22.7 0c-4.2 4.3-4.6 8.7-4.6 22.5c0 13.8 .5 18.2 4.6 22.5c6.3 6.3 16.5 6.3 22.7 0c4.2-4.3 4.6-8.7 4.6-22.5c0-13.8-0.5-18.2-4.6-22.5Zm66.3 48.5c-9.2 9.7-24.4 10.2-34.2 1c-0.1-0.1-0.2-0.2-0.3-0.3c-6.2-6.2-6.2-12.7-6.2-26.7c0-14 0-20.5 6.2-26.7c4.5-4.5 10.5-6.9 16.9-6.9c12.6 0 21.1 8.2 23.1 19.7h-7c-1.9-8.4-7.8-13.5-16-13.5c-4.3 0-8.4 1.7-11.4 4.7c-4.2 4.3-4.6 8.7-4.6 22.5c0 13.8 .5 18.3 4.6 22.6c3 3 7.1 4.7 11.4 4.6c4.8 .1 9.4-2 12.5-5.7c2.7-3.4 4-7.6 3.7-11.9v-5h-16.3v-6.2h23.3v10.5c-0.1 7.8-1.7 12.9-5.7 17.3Zm59.1 7l-15-29.3h-15.9v29.3h-7v-65.9h25.3c11.5 0 19.6 7 19.6 18.4c.4 8.7-5.8 16.3-14.4 17.7l15.7 29.8h-8.3Zm-13.3-59.6h-17.6v24.2h17.6c7.8 0 13.1-4 13.1-12.1c0-8.1-5.4-12.1-13.1-12.1Zm78.4 59.6l-5.3-14.9h-28.8l-5.3 14.9h-7.4l24.3-65.9h5.9l24.2 65.9h-7.6Zm-19.5-55.8l-12.4 34.9h24.6l-12.2-34.9Zm88.7 55.8v-50.1l-18.1 39.8h-6l-18.4-39.8v50.1h-7v-65.9h7l21.5 46.8l21-46.8h7v65.9h-7Z"/><rect x="571.6" y="129" class="st1" width="4.8" height="324.5" fill="#cccccb"/><g><path d="M299.2 356.8v61.6h17.4v-61.6h-17.4Zm-137.3 0v61.7h17.7v-46.9h13.6c4.5 0 7.8 1.1 9.9 3.4c2.8 2.9 3.9 7.8 3.9 16.3v27.1h17.1v-34.1c0-24.3-15.5-27.6-30.8-27.6l-31.4 .1m165.4-0.1v61.6h28.3c15.1 0 20-2.5 25.3-8.1c3.8-3.9 6.2-12.6 6.2-22c0-8.7-2.1-16.4-5.6-21.2c-6.5-8.6-15.8-10.3-29.7-10.3h-24.5Zm17.3 13.4h7.5c10.9 0 17.9 4.9 17.9 17.4c0 12.6-7 17.4-17.9 17.4h-7.5v-34.8Zm-70.6-13.4l-14.5 48.8l-14-48.7h-18.9l19.9 61.6h25.2l20.2-61.6l-17.9-0.1Zm121.3 61.6h17.4v-61.5h-17.4v61.5Zm48.9-61.6l-24.4 61.7h17.2l3.9-10.9h28.8l3.7 10.9h18.7l-24.6-61.6l-23.3-0.1Zm56.9 63.5c-3 0-5.4-2.5-5.4-5.5c0-3 2.5-5.4 5.5-5.4c3 0 5.4 2.4 5.4 5.4c0 3.1-2.4 5.5-5.5 5.5c0 .1 0 .1 0 0Zm0-9.8c-2.4 0-4.4 1.9-4.5 4.3c0 2.4 1.9 4.4 4.3 4.5c2.4 .1 4.4-1.9 4.5-4.3v-0.1c0-2.4-1.9-4.3-4.3-4.4c0 .1 0 .1 0 0Zm1 7.2l-1.1-2.2h-0.6v2.2h-1.3v-5.8h2.4c1-0.1 1.9 .7 1.9 1.7v.1c0 .7-0.4 1.3-1.1 1.5l1.2 2.4l-1.4 .1Zm-0.8-4.7h-0.9v1.5h.9c.4 .1 .8-0.2 .9-0.6c.1-0.4-0.2-0.8-0.6-0.9c-0.2 0-0.3 0-0.3 0Zm-45.7-44.9l10.6 28.8h-21.5l10.9-28.8Z"/><path class="st2" d="M276.1 212.5v-14.8c1.4 0 2.9-0.2 4.4-0.2c40.7-1.3 67.3 34.8 67.3 34.8c0 0-28.7 39.9-59.7 39.9c-4.1 0-8.1-0.6-12-1.9v-44.9c15.8 1.9 19 8.9 28.5 24.7l21.1-17.8c0 0-15.4-20.2-41.4-20.2c-2.7-0.1-5.5 .1-8.2 .4m0-48.9v22.1c1.5-0.1 2.9-0.2 4.4-0.3c56.5-1.9 93.3 46.2 93.3 46.2c0 0-42.3 51.2-86.3 51.2c-3.8 0-7.6-0.3-11.4-1v13.6c3.1 .4 6.3 .6 9.5 .6c41 0 70.6-20.9 99.3-45.5c4.7 3.9 24.2 13 28.2 17.1c-27.3 22.8-90.9 41.1-126.9 41.1c-3.4 0-6.7-0.2-10.1-0.5v19.2h155.7v-163.8h-155.7Zm0 106.6v11.6c-37.9-6.7-48.5-46-48.5-46c13.1-13 30.1-21.2 48.5-23.4v12.8c-15.9-1.9-28.3 12.9-28.3 12.9c0 0 7 24.9 28.3 32.1m-67.3-36.1c16.2-21.2 40.7-34.4 67.3-36.5v-12c-49.7 4-92.7 45.9-92.7 45.9c0 0 24.4 70.2 92.7 76.6v-12.6c-50.1-6.3-67.3-61.4-67.3-61.4Z" fill="#76b900"/></g></g></svg>