<svg viewBox="0 0 20 17" xmlns="http://www.w3.org/2000/svg" xmlns:xlink="http://www.w3.org/1999/xlink"><defs><path id="a" d="M0 0h19.712v16.427H0z"/></defs><g fill="none" fill-rule="evenodd"><mask id="b" fill="#fff"><use xlink:href="#a"/></mask><path d="M19.169.304a7.963 7.963 0 0 1-2.57 1.005A3.986 3.986 0 0 0 13.647 0c-2.232 0-4.043 1.857-4.043 4.147 0 .325.036.64.105.944C6.347 4.918 3.368 3.27 1.372.757a4.224 4.224 0 0 0-.547 2.087c0 1.438.714 2.708 1.799 3.452a3.968 3.968 0 0 1-1.832-.518v.051c0 2.01 1.393 3.687 3.245 4.067-.34.096-.696.145-1.065.145a3.91 3.91 0 0 1-.762-.073c.515 1.646 2.007 2.846 3.777 2.878A7.984 7.984 0 0 1 0 14.566a11.261 11.261 0 0 0 6.2 1.861c7.44 0 11.506-6.318 11.506-11.798 0-.18-.003-.361-.01-.538a8.296 8.296 0 0 0 2.016-2.147 7.884 7.884 0 0 1-2.322.653A4.133 4.133 0 0 0 19.17.304" fill="#FFF" mask="url(#b)"/></g></svg>